<?xml version="1.0" encoding="UTF-8"?>
<svg width="43px" height="43px" viewBox="0 0 43 43" version="1.1" xmlns="http://www.w3.org/2000/svg" xmlns:xlink="http://www.w3.org/1999/xlink">
    <!-- Generator: Sketch 43.2 (39069) - http://www.bohemiancoding.com/sketch -->
    <title>book-circle</title>
    <desc>Created with Sketch.</desc>
    <defs></defs>
    <g id="Edit-Soulment" stroke="none" stroke-width="1" fill="none" fill-rule="evenodd">
        <g transform="translate(-30.000000, -1261.000000)" id="MemBooks">
            <g transform="translate(30.000000, 1261.000000)">
                <g id="Book-Button">
                    <g>
                        <path d="M21.2245741,0 C9.50258878,0 0,9.62590144 0,21.5 C0,33.3740986 9.50258878,43 21.2245741,43 C32.9465595,43 42.4491483,33.3740986 42.4491483,21.5 C42.4491483,9.62590144 32.9465595,0 21.2245741,0 Z" id="Shape" fill="#CAB5A7"></path>
                        <g id="Page-1" transform="translate(6.000000, 8.000000)" fill="#FFFFFF">
                            <path d="M1.412,23.9005 L13.5255,26.076 C14.201,26.1895 14.838,25.664 14.838,24.951 L14.838,3.6505 C14.838,3.088 14.463,2.6385 13.9005,2.5255 L1.787,0.3495 C1.1115,0.2365 0.4745,0.7615 0.4745,1.4745 L0.4745,22.8125 C0.5115,23.338 0.8865,23.824 1.412,23.9005 Z" id="Fill-1"></path>
                            <path d="M16.9375,26.074 L29.051,23.8985 C29.576,23.785 29.9885,23.336 29.9885,22.7735 L29.9885,1.4745 C29.9885,0.7615 29.3515,0.2365 28.676,0.3495 L16.5625,2.5255 C16.037,2.6385 15.625,3.088 15.625,3.6505 L15.625,24.9885 C15.625,25.662 16.2615,26.1875 16.9375,26.074 Z" id="Fill-2"></path>
                        </g>
                    </g>
                </g>
            </g>
        </g>
    </g>
</svg>