<?xml version="1.0" encoding="UTF-8"?>
<svg width="37px" height="30px" viewBox="0 0 37 30" version="1.1" xmlns="http://www.w3.org/2000/svg" xmlns:xlink="http://www.w3.org/1999/xlink">
    <!-- Generator: Sketch 43.2 (39069) - http://www.bohemiancoding.com/sketch -->
    <title>calendar-wide</title>
    <desc>Created with Sketch.</desc>
    <defs></defs>
    <g id="Symbols" stroke="none" stroke-width="1" fill="none" fill-rule="evenodd">
        <g id="calendar-wide" fill="#CAB5A7">
            <path d="M32.8942007,4.44425693 L31.0242121,4.44425693 L31.0242121,9.72238161 L24.4740558,9.72238161 L24.4740558,4.44425693 L12.52248,4.44425693 L12.52248,9.72238161 L5.97578788,9.72238161 L5.97578788,4.44425693 L4.1057993,4.44425693 C1.81871805,4.44425693 0,5.81074695 0,7.44405441 L0,26.9996962 C0,28.6709758 1.86998858,30 4.1057993,30 L32.8942007,30 C35.181282,30 37,28.63351 37,26.9996962 L37,7.44202923 C37,5.77328113 35.1265472,4.44425693 32.8942007,4.44425693 Z M32.8942007,26.997671 L4.1057993,26.997671 L4.1057993,12.3034732 L32.8942007,12.3034732 L32.8942007,26.997671 Z M7.38087748,7.10230533 L7.38087748,1.3290242 C7.38087748,0.607047625 8.16032807,0 9.19959553,0 C10.238863,0 11.0183136,0.5695818 11.0183136,1.3290242 L11.0183136,7.10028015 C11.0183136,7.82175043 10.238863,8.42930435 9.19959553,8.42930435 C8.16032807,8.42930435 7.38087748,7.82175043 7.38087748,7.10230533 Z M26.0329569,7.10230533 L26.0329569,1.3290242 C26.0329569,0.607047625 26.8124075,0 27.851675,0 C28.8909425,0 29.670393,0.5695818 29.670393,1.3290242 L29.670393,7.10028015 C29.670393,7.82175043 28.8909425,8.42930435 27.851675,8.42930435 C26.8124075,8.42930435 26.0329569,7.82175043 26.0329569,7.10230533 Z"></path>
        </g>
    </g>
</svg>