<?xml version="1.0" encoding="UTF-8"?>
<svg width="64px" height="53px" viewBox="0 0 64 53" version="1.1" xmlns="http://www.w3.org/2000/svg" xmlns:xlink="http://www.w3.org/1999/xlink">
    <!-- Generator: Sketch 43.2 (39069) - http://www.bohemiancoding.com/sketch -->
    <title>camera-plus</title>
    <desc>Created with Sketch.</desc>
    <defs>
        <polygon id="path-1" points="44.394431 0.333333333 44.394431 11.3977778 33.3299866 11.3977778 33.3299866 16.604 44.394431 16.604 44.394431 27.6684444 49.6006532 27.6684444 49.6006532 16.604 60.6650977 16.604 60.6650977 11.3977778 49.6006532 11.3977778 49.6006532 0.333333333"></polygon>
    </defs>
    <g id="Add-Soulment" stroke="none" stroke-width="1" fill="none" fill-rule="evenodd">
        <g transform="translate(-659.000000, -373.000000)" id="Notes">
            <g transform="translate(30.000000, 376.000000)">
                <g id="camera-plus" transform="translate(629.000000, 0.000000)">
                    <ellipse id="Oval" fill="#126463" cx="24.7058824" cy="31.5890411" rx="6.94852941" ry="6.90410959"></ellipse>
                    <path d="M45,11.4246575 L35.2941176,11.4246575 L31.7647059,7.91780822 L17.6470588,7.91780822 L14.1176471,11.4246575 L4.41176471,11.4246575 C1.97514706,11.4246575 0,13.3871781 0,15.8082192 L0,45.6164384 C0,48.0374795 1.97514706,50 4.41176471,50 L45,50 C47.4366176,50 49.4117647,48.0374795 49.4117647,45.6164384 L49.4117647,15.8082192 C49.4117647,13.3871781 47.4366176,11.4246575 45,11.4246575 Z M24.7058824,43.8630137 C17.8836397,43.8630137 12.3529412,38.3676712 12.3529412,31.5890411 C12.3529412,24.810411 17.8836397,19.3150685 24.7058824,19.3150685 C31.528125,19.3150685 37.0588235,24.810411 37.0588235,31.5890411 C37.0588235,38.3676712 31.528125,43.8630137 24.7058824,43.8630137 Z" id="Shape" fill="#126463"></path>
                    <g id="Plus" stroke-linecap="round" stroke-linejoin="round">
                        <use fill="#126463" fill-rule="evenodd" xlink:href="#path-1"></use>
                        <path stroke="#FFFFFF" stroke-width="3" d="M42.894431,9.89777778 L33.3299866,9.89777778 L31.8299866,9.89777778 L31.8299866,11.3977778 L31.8299866,16.604 L31.8299866,18.104 L33.3299866,18.104 L42.894431,18.104 L42.894431,27.6684444 L42.894431,29.1684444 L44.394431,29.1684444 L49.6006532,29.1684444 L51.1006532,29.1684444 L51.1006532,27.6684444 L51.1006532,18.104 L60.6650977,18.104 L62.1650977,18.104 L62.1650977,16.604 L62.1650977,11.3977778 L62.1650977,9.89777778 L60.6650977,9.89777778 L51.1006532,9.89777778 L51.1006532,0.333333333 L51.1006532,-1.16666667 L49.6006532,-1.16666667 L44.394431,-1.16666667 L42.894431,-1.16666667 L42.894431,0.333333333 L42.894431,9.89777778 Z"></path>
                    </g>
                </g>
            </g>
        </g>
    </g>
</svg>