<?xml version="1.0" encoding="UTF-8"?>
<svg width="50px" height="50px" viewBox="0 0 50 50" version="1.1" xmlns="http://www.w3.org/2000/svg" xmlns:xlink="http://www.w3.org/1999/xlink">
    <!-- Generator: Sketch 43.2 (39069) - http://www.bohemiancoding.com/sketch -->
    <title>gear</title>
    <desc>Created with Sketch.</desc>
    <defs></defs>
    <g id="Soulments" stroke="none" stroke-width="1" fill="none" fill-rule="evenodd">
        <g id="Days" transform="translate(-30.000000, -60.000000)" fill="#FFFFFF">
            <g id="UINavigationBarOverlay" transform="translate(-19.000000, 0.000000)">
                <g transform="translate(0.000000, 60.000000)" id="Left">
                    <g transform="translate(43.000000, 0.000000)">
                        <g id="gear-badged" transform="translate(6.000000, 0.000000)">
                            <g id="Gear">
                                <path d="M28.480303,0 L30.219697,6.07272727 C31.8,6.50454545 33.3030303,7.12575758 34.6939394,7.91969697 L40.1984848,4.86515152 L45.1348485,9.80151515 L42.080303,15.3060606 C42.8742424,16.6969697 43.4954545,18.2 43.9272727,19.780303 L50,21.519697 L50,28.480303 L43.9272727,30.219697 C43.4954545,31.8 42.8742424,33.3030303 42.080303,34.6939394 L45.1348485,40.1984848 L40.1984848,45.1348485 L34.6939394,42.080303 C33.3030303,42.8742424 31.8,43.4954545 30.219697,43.9272727 L28.480303,50 L21.519697,50 L19.780303,43.9272727 C18.2,43.4954545 16.6969697,42.8742424 15.3060606,42.080303 L9.80151515,45.1348485 L4.86515152,40.1984848 L7.91969697,34.6939394 C7.12575758,33.3030303 6.50454545,31.8 6.07272727,30.219697 L0,28.480303 L0,21.519697 L6.07272727,19.780303 C6.50454545,18.2 7.12575758,16.6969697 7.91969697,15.3060606 L4.86515152,9.80151515 L9.80151515,4.86515152 L15.3060606,7.91969697 C16.6969697,7.12575758 18.2,6.50454545 19.780303,6.07272727 L21.519697,0 L28.480303,0 Z M25,19.2307692 C21.8153846,19.2307692 19.2307692,21.8153846 19.2307692,25 C19.2307692,28.1846154 21.8153846,30.7692308 25,30.7692308 C28.1846154,30.7692308 30.7692308,28.1846154 30.7692308,25 C30.7692308,21.8153846 28.1846154,19.2307692 25,19.2307692 Z"></path>
                            </g>
                        </g>
                    </g>
                </g>
            </g>
        </g>
    </g>
</svg>