<?xml version="1.0" encoding="UTF-8"?>
<svg width="66px" height="42px" viewBox="0 0 66 42" version="1.1" xmlns="http://www.w3.org/2000/svg" xmlns:xlink="http://www.w3.org/1999/xlink">
    <!-- Generator: Sketch 43.2 (39069) - http://www.bohemiancoding.com/sketch -->
    <title>mindful-corner</title>
    <desc>Created with Sketch.</desc>
    <defs></defs>
    <g id="Symbols" stroke="none" stroke-width="1" fill="none" fill-rule="evenodd">
        <g id="Tab-Bar" transform="translate(-561.000000, -23.000000)" fill="#FFFFFF">
            <g id="3">
                <g transform="translate(523.304927, 6.000000)">
                    <g id="ios-cloud-outline" transform="translate(38.000000, 17.000000)">
                        <path d="M53.2912946,17.6166667 C53.2912946,17.4416667 53.3203125,17.2666667 53.3203125,17.0916667 C53.3203125,7.71458333 45.6595982,0 36.3738839,0 C29.6852679,0 23.9252232,4.06875 21.2265625,9.77083333 C20.0513393,9.17291667 18.7455357,8.8375 17.3381696,8.8375 C13.0435268,8.8375 9.48883929,12.29375 8.79241071,16.4208333 C3.68526786,18.2 0,22.8666667 0,28.6416667 C0,35.9041667 5.81808036,42 13,42 L53.1026786,42 C59.6316964,42 65,36.3270833 65,29.70625 C65,23.05625 59.8638393,17.63125 53.2912946,17.6166667 Z M53.0301339,39.6083333 L52.5658482,39.6666667 L13.1160714,39.6666667 C7.18191964,39.6666667 2.35044643,34.5770833 2.35044643,28.56875 C2.35044643,23.9166667 5.28125,20.0520833 9.63392857,18.5354167 L10.8526786,18.0979167 L11.0703125,16.8145833 C11.5926339,13.6645833 14.2767857,11.0833333 17.4397321,11.0833333 C18.4408482,11.0833333 19.4274554,11.3166667 20.3270089,11.7833333 L22.2857143,12.775 L23.2287946,10.7770833 C25.6372768,5.6875 30.7879464,2.28958333 36.3448661,2.28958333 C44.3683036,2.28958333 50.984375,8.72083333 50.984375,16.8291667 C50.984375,18.76875 50.9553571,19.7895833 50.9553571,19.7895833 L53.1607143,19.8041667 C58.4854911,19.8770833 62.6785714,24.2520833 62.6785714,29.6333333 C62.6785714,35.0145833 58.3549107,39.5791667 53.0301339,39.6083333 Z" id="mindful-corner"></path>
                    </g>
                </g>
            </g>
        </g>
    </g>
</svg>