<?xml version="1.0" encoding="UTF-8"?>
<svg width="51px" height="51px" viewBox="0 0 51 51" version="1.1" xmlns="http://www.w3.org/2000/svg" xmlns:xlink="http://www.w3.org/1999/xlink">
    <!-- Generator: Sketch 43.2 (39069) - http://www.bohemiancoding.com/sketch -->
    <title>search</title>
    <desc>Created with Sketch.</desc>
    <defs>
        <path d="M730.210268,34.844889 L744.237035,48.8716561 C745.32928,49.9639006 745.32527,51.7387882 744.238798,52.8252605 L744.044512,53.0195469 C742.953241,54.1108178 741.185106,54.1119826 740.090907,53.0177839 L726.084475,39.0113514 C722.8506,41.4269754 718.861201,42.853352 714.545034,42.853352 C703.75061,42.853352 695,33.9318752 695,22.926676 C695,11.9214767 703.75061,3 714.545034,3 C725.339459,3 734.090069,11.9214767 734.090069,22.926676 C734.090069,27.39564 732.647102,31.5210004 730.210268,34.844889 Z M714.545034,38.8680168 C723.180574,38.8680168 730.181062,31.7308354 730.181062,22.926676 C730.181062,14.1225166 723.180574,6.9853352 714.545034,6.9853352 C705.909495,6.9853352 698.909007,14.1225166 698.909007,22.926676 C698.909007,31.7308354 705.909495,38.8680168 714.545034,38.8680168 Z" id="path-1"></path>
    </defs>
    <g id="Soulments" stroke="none" stroke-width="1" fill="none" fill-rule="evenodd">
        <g id="Days" transform="translate(-676.000000, -63.000000)">
            <g id="UINavigationBarOverlay" transform="translate(-19.000000, 0.000000)">
                <g transform="translate(0.000000, 60.000000)" id="Right">
                    <g>
                        <g id="search">
                            <use fill="#FFFFFF" fill-rule="evenodd" xlink:href="#path-1"></use>
                            <path stroke="#FFFFFF" stroke-width="4" d="M728.796055,36.2591026 L742.822822,50.2858696 C743.132113,50.5951612 743.131914,51.1037178 742.824585,51.4110469 L742.630298,51.6053334 C742.319467,51.9161642 741.817662,51.9161118 741.505121,51.6035704 L727.498688,37.5971378 L726.274547,36.3729969 L724.887579,37.4090279 C721.906443,39.6358621 718.317823,40.853352 714.545034,40.853352 C704.863929,40.853352 697,32.83587 697,22.926676 C697,13.017482 704.863929,5 714.545034,5 C724.22614,5 732.090069,13.017482 732.090069,22.926676 C732.090069,26.8555112 730.852183,30.5866733 728.5973,33.6623777 L727.582938,35.0459863 L728.796055,36.2591026 Z M714.545034,40.8680168 C724.293893,40.8680168 732.181062,32.8268407 732.181062,22.926676 C732.181062,13.0265113 724.293893,4.9853352 714.545034,4.9853352 C704.796176,4.9853352 696.909007,13.0265113 696.909007,22.926676 C696.909007,32.8268407 704.796176,40.8680168 714.545034,40.8680168 Z"></path>
                        </g>
                    </g>
                </g>
            </g>
        </g>
    </g>
</svg>