<?xml version="1.0" encoding="UTF-8"?>
<svg width="66px" height="62px" viewBox="0 0 66 62" version="1.1" xmlns="http://www.w3.org/2000/svg" xmlns:xlink="http://www.w3.org/1999/xlink">
    <!-- Generator: Sketch 43.2 (39069) - http://www.bohemiancoding.com/sketch -->
    <title>soulment</title>
    <desc>Created with Sketch.</desc>
    <defs>
        <rect id="path-1" x="0.976031957" y="0" width="95.8721704" height="64"></rect>
    </defs>
    <g id="Symbols" stroke="none" stroke-width="1" fill="none" fill-rule="evenodd">
        <g id="Tab-Bar" transform="translate(-137.000000, -8.000000)">
            <g id="1">
                <g transform="translate(104.860186, 6.000000)">
                    <g id="soulment" transform="translate(17.000000, 0.000000)">
                        <mask id="mask-2" fill="white">
                            <use xlink:href="#path-1"></use>
                        </mask>
                        <use id="Tab-Bar-Icon-Frame" fill="#007AFF" opacity="0" xlink:href="#path-1"></use>
                        <path d="M50.6454585,141.011996 C50.2755947,141.705991 49.8180855,142.180829 48.6524011,141.933844 C47.4358823,141.68164 47.5498214,140.217121 47.5498214,140.217121 L50.6454585,141.011996 Z M47.5498214,140.217121 C47.5498214,140.217121 47.4358823,141.68164 48.6524011,141.933844 C49.8180855,142.180829 50.2755947,141.705991 50.6454585,141.011996 L47.5498214,140.217121 Z M17.6644776,28.6423021 C19.9485179,28.7101362 20.0589511,25.1845055 17.771405,25.1166715 C15.4838589,25.0488374 15.3734256,28.5744681 17.6644776,28.6423021 L17.6644776,28.6423021 Z M18.8091271,22.0902297 C21.0949203,22.1563244 21.2036006,18.6324331 18.9160545,18.564599 C16.6320142,18.496765 16.519828,22.0206563 18.8091271,22.0902297 L18.8091271,22.0902297 Z M22.8741228,17.0357242 C25.1581631,17.1035582 25.2685964,13.5779275 22.9810503,13.5100935 C20.6917512,13.4422594 20.5830709,16.9678901 22.8741228,17.0357242 L22.8741228,17.0357242 Z M27.4825203,13.5257475 C29.7683135,13.5935815 29.8787468,10.0696902 27.5894478,10.0001168 C25.3036545,9.93228276 25.1949742,13.4579134 27.4825203,13.5257475 L27.4825203,13.5257475 Z M35.204084,10.989798 C37.4881243,11.0593714 37.5968047,7.53200138 35.3110115,7.46416735 C33.0234653,7.39807264 32.9130321,10.9237033 35.204084,10.989798 L35.204084,10.989798 Z M40.9115554,6.33881803 C43.1991015,6.40491274 43.3095348,2.88102139 41.0184828,2.81318735 C38.7326896,2.74535331 38.6240093,6.26924466 40.9115554,6.33881803 L40.9115554,6.33881803 Z M46.2631863,5.85006509 C48.5524853,5.91615979 48.6629186,2.39226844 46.3701137,2.3244344 C44.0860734,2.25660036 43.9756402,5.78049171 46.2631863,5.85006509 L46.2631863,5.85006509 Z M51.2361888,5.5265489 C53.5202291,5.59438294 53.6306624,2.07049159 51.3413634,2.00091822 C49.0538172,1.93482351 48.943384,5.45871486 51.2361888,5.5265489 L51.2361888,5.5265489 Z M56.7596048,5.69004633 C59.0436451,5.7596197 59.1575841,2.23224968 56.8630264,2.16441564 C54.5772332,2.09658161 54.4720587,5.62395163 56.7596048,5.69004633 L56.7596048,5.69004633 Z M61.9937907,9.02087157 C64.279584,9.08870561 64.3865114,5.56307492 62.0989653,5.49524088 C59.8131721,5.42740685 59.7027388,8.95303753 61.9937907,9.02087157 L61.9937907,9.02087157 Z M65.567972,10.4210357 C67.8537652,10.4871304 67.9641985,6.96323906 65.6731465,6.89540502 C63.3856004,6.82757098 63.2751672,10.3532017 65.567972,10.4210357 L65.567972,10.4210357 Z M68.3305564,13.1483119 C70.6128438,13.216146 70.7232771,9.69225462 68.435731,9.62442058 C66.1481848,9.55658654 66.0377516,13.0804779 68.3305564,13.1483119 L68.3305564,13.1483119 Z M72.495468,16.5069665 C74.7812612,16.5748006 74.8916944,13.0491699 72.5988896,12.9813358 C70.3148493,12.9135018 70.204416,16.4391325 72.495468,16.5069665 L72.495468,16.5069665 Z M76.0626376,20.0830379 C78.3466779,20.1491326 78.4571111,16.6235019 76.169565,16.5556679 C73.8820189,16.4878338 73.7715856,20.0134645 76.0626376,20.0830379 L76.0626376,20.0830379 Z M77.1546998,25.1131928 C79.440493,25.1827662 79.5509263,21.6553961 77.2598744,21.5875621 C74.9723282,21.5197281 74.8636479,25.0453587 77.1546998,25.1131928 L77.1546998,25.1131928 Z M78.7726347,30.4546885 C81.0584279,30.5225226 81.1653554,26.9968919 78.8778093,26.9273185 C76.5902632,26.8594845 76.4798299,30.3868545 78.7726347,30.4546885 L78.7726347,30.4546885 Z M79.230144,34.9369531 C81.5159372,35.0030478 81.6263704,31.4791564 79.3353185,31.4113224 C77.0477724,31.3452277 76.939092,34.8673797 79.230144,34.9369531 L79.230144,34.9369531 Z M78.4711344,40.4106382 C80.7569276,40.4784723 80.8673609,36.9545809 78.5763089,36.8867469 C76.2922686,36.8189128 76.1818354,40.3445435 78.4711344,40.4106382 L78.4711344,40.4106382 Z M76.5569579,44.9398648 C78.844504,45.0059595 78.9514314,41.4820682 76.6638853,41.4142341 C74.3763392,41.3464001 74.265906,44.8702914 76.5569579,44.9398648 L76.5569579,44.9398648 Z M74.8987061,50.8622982 C77.1827464,50.9283929 77.2931796,47.4045016 75.0038806,47.3366675 C72.7180874,47.2688335 72.6076541,50.7944642 74.8987061,50.8622982 L74.8987061,50.8622982 Z M70.5812914,54.4975069 C72.8688376,54.565341 72.9775179,51.0397103 70.686466,50.9718763 C68.3989199,50.9040422 68.2884866,54.4296729 70.5812914,54.4975069 L70.5812914,54.4975069 Z M66.0991034,57.7170148 C68.3831437,57.7848488 68.4935769,54.2574788 66.2042779,54.1896448 C63.9167318,54.1218107 63.8062985,57.6491808 66.0991034,57.7170148 L66.0991034,57.7170148 Z M61.8605697,60.7086698 C64.14461,60.7765039 64.2515374,57.2508732 61.9639913,57.1812998 C59.679951,57.1152051 59.5677648,60.6408358 61.8605697,60.7086698 L61.8605697,60.7086698 Z M57.6956581,61.2304701 C59.9779455,61.2983042 60.0918846,57.7744128 57.8008327,57.7065788 C55.5132865,57.6387447 55.4028533,61.1626361 57.6956581,61.2304701 L57.6956581,61.2304701 Z M49.0240178,63.7977276 C51.309811,63.8655616 51.4202443,60.339931 49.1291923,60.2720969 C46.8433991,60.2042629 46.7329659,63.7298936 49.0240178,63.7977276 L49.0240178,63.7977276 Z M43.8722185,63.6446662 C46.1580117,63.7125002 46.268445,60.1868695 43.9773931,60.1190355 C41.6915999,60.0529408 41.5811666,63.5750928 43.8722185,63.6446662 L43.8722185,63.6446662 Z M40.2699907,61.3035222 C42.554031,61.3713562 42.6644643,57.8457255 40.3769182,57.7778915 C38.0893721,57.7083181 37.9789388,61.2356881 40.2699907,61.3035222 L40.2699907,61.3035222 Z M34.4643565,59.0736956 C36.7483968,59.1415296 36.8605829,55.6176383 34.5712839,55.5480649 C32.2837378,55.4802308 32.1768103,59.0041222 34.4643565,59.0736956 L34.4643565,59.0736956 Z M27.8471254,56.5829688 C30.1346715,56.6508028 30.239846,53.1234328 27.9522999,53.0573381 C25.6647538,52.9895041 25.5543205,56.5151348 27.8471254,56.5829688 L27.8471254,56.5829688 Z M24.2396388,52.3598651 C26.5254321,52.4276991 26.6341124,48.9038077 24.3448134,48.8342344 C22.0607731,48.7664003 21.9503398,52.2902917 24.2396388,52.3598651 L24.2396388,52.3598651 Z M22.8180297,48.3907041 C25.10207,48.4585382 25.2160091,44.9346468 22.9232043,44.8668128 C20.639164,44.7989787 20.5287307,48.3246094 22.8180297,48.3907041 L22.8180297,48.3907041 Z M21.7557669,44.3119651 C24.0380543,44.3797992 24.1537463,40.8559078 21.8609415,40.7880738 C19.5769012,40.7202397 19.464715,44.2441311 21.7557669,44.3119651 L21.7557669,44.3119651 Z M19.5085377,40.2227901 C21.7908251,40.2888848 21.9047642,36.7649935 19.6137123,36.6971594 C17.3261661,36.6293254 17.2192387,40.1549561 19.5085377,40.2227901 L19.5085377,40.2227901 Z M18.176327,35.2674266 C20.4621202,35.3352606 20.5708005,31.80963 18.2815015,31.7417959 C15.9939554,31.6739619 15.8887808,35.1995926 18.176327,35.2674266 L18.176327,35.2674266 Z M39.5425335,36.7545575 C41.3077128,36.5997567 42.8695546,35.997947 44.2788934,34.9178204 C44.4191261,34.811721 44.3945854,34.5334275 44.2333178,34.4568968 C43.1219735,33.9298785 41.9895944,33.5594003 40.7765814,33.3489408 C40.7450291,33.5402676 40.7117238,33.7333337 40.6784185,33.9246605 C41.5250735,33.9785799 42.3594581,33.9837979 43.2078661,33.9472718 C43.5146251,33.9333572 43.6531049,33.4393862 43.3025231,33.3732915 C42.7959325,33.2758888 42.2805772,33.2184908 41.7739866,33.121088 C41.7406813,33.3124148 41.7126348,33.5037416 41.6775766,33.698547 C42.3331645,33.7542057 42.9992699,33.7802957 43.6566107,33.7281157 C43.9510994,33.703765 44.0702972,33.3680735 43.8231371,33.1854434 C43.3796511,32.8567092 43.113209,32.5714584 42.8204732,32.1053168 L42.5522781,32.5401504 C43.1955957,32.5749371 43.82489,32.6514678 44.4559372,32.7819178 C44.4874896,32.5905911 44.5190419,32.397525 44.5523472,32.2061982 C43.4567791,32.2079375 42.3138825,31.9105113 41.3778292,31.3382704 C41.2761604,31.5052464 41.169233,31.6687439 41.0623056,31.83572 C41.8072918,32.2757716 42.6521939,32.4584017 43.497096,32.5766764 C44.094838,32.6619038 44.2578585,32.6619038 44.6627804,33.1176094 C44.9274697,33.4202535 45.1886531,33.6794144 45.5182,33.9211818 C45.749584,34.0933759 46.1001657,33.7733384 45.9371452,33.5333103 C45.3779673,32.7245198 44.8871528,31.8739853 44.6505101,30.9173514 C44.4822308,31.0077968 44.3157045,31.0982422 44.1456723,31.1886876 C44.9134464,32.0513974 45.749584,32.8410552 46.6786257,33.5298316 C46.8398933,33.651585 47.057254,33.5333103 47.1168529,33.3680735 C47.3447311,32.7471312 47.4446469,32.1609755 47.4446469,31.5035071 C47.2518269,31.5243791 47.0607598,31.5435118 46.864434,31.5643838 C46.9783731,32.2027195 47.1869693,32.7279985 47.5498214,33.2741495 C47.7181007,33.5333103 48.0616708,33.4306895 48.1072464,33.1419601 C48.2860431,31.9887814 48.3754415,30.8373421 48.3807002,29.6719881 L47.7952287,29.7328648 C47.9635079,30.9173514 48.2948077,32.0340041 48.7838693,33.1245667 C48.8995613,33.3715522 49.250143,33.2915428 49.3307768,33.0706473 C49.6866174,32.0983595 50.0845277,31.1434649 50.4263449,30.1676983 C50.2387837,30.108561 50.0512224,30.0511629 49.8636612,29.9937649 C49.5604079,31.0025788 49.2711779,32.0183501 49.1099103,33.058472 C49.0660876,33.3350262 49.4341985,33.4219929 49.6077365,33.2793675 C50.3492169,32.6862545 50.9907816,32.0253074 51.5709944,31.2756543 C51.3939506,31.1956449 51.2151539,31.1156356 51.0363572,31.0356262 C50.8750896,31.7348386 50.7103162,32.4357903 50.5490485,33.136742 C50.4806851,33.4411256 50.7979616,33.6115803 51.0363572,33.4376469 C51.5867706,33.0393393 52.1406898,32.6410318 52.694609,32.2427242 C53.0013681,32.0200894 52.5929403,31.5939525 52.2879342,31.814848 C51.7340149,32.2131555 51.1836016,32.6114631 50.6296823,33.01151 L51.116991,33.3106755 C51.2765057,32.6097237 51.4395263,31.908772 51.6042997,31.2078203 C51.6796748,30.8756074 51.2729999,30.6999347 51.0661567,30.9643135 C50.5174962,31.6774405 49.9074839,32.2896862 49.2028145,32.8532306 C49.3693408,32.9280219 49.5358672,33.001074 49.6988877,33.0758653 C49.8548966,32.0879234 50.1423737,31.1225929 50.4263449,30.1676983 C50.5367782,29.8024381 49.9898706,29.6389407 49.8636612,29.9937649 C49.5165852,30.9695315 49.1204278,31.9261654 48.7645873,32.8967139 C48.943384,32.8810599 49.1256865,32.8636666 49.307989,32.8427945 C48.8329507,31.7957153 48.5314504,30.7295033 48.3719357,29.593718 C48.3246071,29.2632445 47.788217,29.3258605 47.788217,29.6528554 C47.7829583,30.8216881 47.6935599,31.971388 47.5112574,33.1245667 C47.6970658,33.0828227 47.8828741,33.0376 48.0704353,32.9923773 C47.7426414,32.4984063 47.5463156,32.0096534 47.4376352,31.4252371 C47.3797892,31.0982422 46.8556695,31.1539009 46.8539166,31.4861138 C46.8539166,32.0879234 46.7575066,32.6305958 46.5524162,33.1941401 L46.9906435,33.032382 C46.1036716,32.3731743 45.3078509,31.6096065 44.5786408,30.7869014 C44.3805621,30.5642666 44.0019338,30.7782047 44.0738031,31.0564982 C44.3227161,32.0600941 44.8293068,32.9645479 45.4147784,33.8133431 L45.8302178,33.4237322 C45.1606066,32.9297613 45.0834786,32.2201129 44.2981754,32.0792268 C43.284994,31.893118 42.2928476,31.877464 41.3778292,31.3382704 C41.0500352,31.1434649 40.7397703,31.6374359 41.0623056,31.83572 C42.0877573,32.4636197 43.3305697,32.7958325 44.5330652,32.7923539 C44.8503417,32.7923539 44.9712924,32.2879469 44.6294752,32.2183735 C43.9440878,32.0792268 43.2692179,31.9887814 42.5698072,31.950516 C42.3541994,31.9383407 42.1789085,32.1975015 42.3016122,32.3853496 C42.631159,32.9088893 43.0115403,33.3124148 43.5093664,33.6846324 C43.5637066,33.5020023 43.6197996,33.3211115 43.6741398,33.1402207 C43.0150461,33.1906614 42.3524465,33.1663107 41.6968586,33.1089127 C41.3690646,33.079344 41.2709017,33.6185377 41.6022015,33.6846324 C42.1070393,33.7802957 42.6188887,33.8376938 43.1254793,33.9350965 C43.1587846,33.7420304 43.1920899,33.5507036 43.2236422,33.3593768 C42.3787401,33.3959029 41.5408497,33.3906849 40.6977005,33.3367655 C40.3734124,33.3176328 40.2682378,33.8533478 40.6012905,33.9107458 C41.7617162,34.1125086 42.8537785,34.4482001 43.9195471,34.9543464 L43.8722185,34.4899442 C42.6066183,35.462232 41.1534568,36.0275157 39.5600626,36.1666624 C39.1831872,36.1997098 39.1603994,36.7876048 39.5425335,36.7545575 L39.5425335,36.7545575 Z M42.8642959,34.145556 C43.3305697,34.2116507 43.7793144,34.3090534 44.2333178,34.4325461 C44.4349023,34.4882048 44.5891583,34.3490581 44.6172048,34.1629493 C44.6768037,33.7437697 44.6575217,33.3663342 44.5698763,32.9558513 L44.3525156,33.3106755 L44.4945012,33.2932821 L44.208777,33.2097941 L44.3157045,33.3106755 C44.5821466,33.5767936 45.0098564,33.1802254 44.7399084,32.9071499 C44.4699605,32.6271171 44.1877421,32.460141 43.8038551,32.3696956 C43.6040235,32.3227336 43.4410029,32.4427477 43.419968,32.6392924 C43.3936744,32.8775812 43.4883315,33.01151 43.6934218,33.1332634 C44.1071083,33.3750309 44.5067716,33.3489408 44.8661179,33.7420304 C45.0133622,33.9037885 45.3078509,33.8411725 45.3656969,33.6289737 C45.4691185,33.2619741 45.4060138,32.98542 45.1395717,32.7088658 C44.9870686,32.5505864 44.7048503,32.6097237 44.6417455,32.8236619 C44.4927483,33.3280688 44.4331494,33.8063858 44.4699605,34.3316647 C44.6662863,34.3107927 44.8626121,34.2899207 45.0571849,34.2690487 L45.0256326,34.0185846 C45.0081035,33.8516085 44.8100248,33.7785564 44.6697921,33.8029071 C44.0124512,33.9090065 44.1228845,34.5160342 43.8774773,34.9856544 L44.343751,34.9404317 L44.2578585,34.7021429 C44.0860734,34.764759 43.9195471,34.8291144 43.747762,34.8917304 L42.8660488,35.394398 C42.631159,35.5944215 42.4926792,35.8553216 42.3962692,36.1440511 C42.3208942,36.3736432 42.5382549,36.544098 42.7503568,36.5162687 C43.2078661,36.4519133 43.6653753,36.3875579 44.1193787,36.3232025 C44.478725,36.2727618 44.3595272,35.7874876 44.0580269,35.7440042 C43.8459249,35.7144355 43.63207,35.6848668 43.4164622,35.6552982 C43.4813198,35.8257529 43.5461775,35.9944684 43.6110351,36.1649231 C44.1263903,35.7457435 44.6452514,35.977075 45.22897,35.8083596 L44.9081877,35.3648293 L44.8170364,35.3926587 L45.1728769,35.7648762 L45.2307229,35.4170094 C45.2622753,35.2430759 45.1693711,35.0308771 44.9572691,35.0378345 L44.9747982,34.3351434 C44.9081877,34.0898973 44.5803937,34.0359779 44.4366552,34.249916 C44.3279748,34.4134134 44.2175416,34.5769109 44.1053554,34.7421476 C44.285905,34.796067 44.4699605,34.8517257 44.652263,34.9073844 C44.6855683,34.6012616 44.7434143,34.3055747 44.8240481,34.0081485 L44.2420823,33.9124852 C44.2000125,34.192518 44.1596956,34.4708115 44.1193787,34.7525836 C44.2911638,34.6864889 44.459443,34.6238729 44.6294752,34.5595175 C44.4909954,34.3977594 44.3525156,34.234262 44.208777,34.0725039 L43.9072767,34.5560389 C44.6785566,34.712579 45.4463307,34.790849 46.2351397,34.780413 L45.9949912,34.3299254 L45.7250432,34.5664749 L46.1615176,34.832593 C46.1282123,34.4568968 46.1650234,34.1281626 46.2912328,33.7663811 C46.3911486,33.4828696 46.0142732,33.2724101 45.805677,33.4654762 C45.3358975,33.8985705 44.8626121,34.3281861 44.3928325,34.7612803 C44.5593588,34.8343324 44.7276381,34.9108631 44.8906586,34.9856544 C44.9257168,34.5856075 44.960775,34.1855606 44.9940802,33.7855138 C45.0203739,33.4550402 44.5015128,33.3715522 44.4138674,33.6898504 C44.3279748,34.0029305 44.2946696,34.2933994 44.3157045,34.6186549 C44.3314807,34.8673797 44.6084403,35.0221805 44.8135306,34.8412897 C45.1045135,34.5803895 45.3604382,34.3003567 45.6005867,33.9924945 C45.4182842,33.9385752 45.2342287,33.8846558 45.0536791,33.8289971 C45.074714,34.140338 45.0379029,34.3855841 44.8906586,34.6673563 C45.0729611,34.723015 45.2552637,34.7769343 45.4393191,34.832593 C45.4428249,34.5734322 45.4463307,34.3160107 45.4550953,34.0568499 C45.4638598,33.677675 44.8906586,33.6654997 44.8626121,34.0394566 C44.825801,34.4934228 44.8485888,34.9195597 44.9274697,35.368308 C44.9572691,35.5387628 45.2061822,35.6639948 45.3569324,35.5561561 C45.7057612,35.31091 45.9494156,35.0500098 46.1352239,34.6621383 C45.9529214,34.6082189 45.768866,34.5525602 45.5900693,34.4986408 C45.5970809,34.8308537 45.576046,35.0778392 45.4831418,35.410052 C45.4340604,35.6152935 45.61461,35.8501036 45.8407352,35.7822696 C46.1317181,35.6953028 46.3245381,35.5874641 46.5454046,35.378744 C46.8206113,35.1108865 46.4314655,34.712579 46.1369768,34.9508678 C45.9774621,35.0900145 45.8021712,35.1978532 45.6058454,35.2709053 L46.0318023,35.6152935 L46.1369768,35.4744074 C46.4770412,35.3039526 46.1948228,34.785631 45.8530056,34.9560858 C45.633892,35.0674032 45.5199529,35.1995926 45.4673656,35.4430994 C45.4060138,35.6987815 45.6461623,35.8970656 45.8898167,35.7874876 C46.1369768,35.6761702 46.3333026,35.5474594 46.5454046,35.378744 L46.1369768,34.9508678 L45.7005025,35.2117679 L46.0510843,35.5839854 C46.1474943,35.2256826 46.1930699,34.8865124 46.1807996,34.5160342 C46.1702821,34.2533947 45.768866,34.0655466 45.6321391,34.3507974 C45.4954122,34.6360482 45.3358975,34.8517257 45.0729611,35.0395738 L45.5041767,35.2291612 C45.4340604,34.8343324 45.4200371,34.4534181 45.4550953,34.0568499 L44.8626121,34.0394566 C44.8556004,34.2986174 44.8503417,34.5560389 44.8468359,34.8151997 C44.8415772,35.0900145 45.2500049,35.2465546 45.3937435,34.9786971 C45.5900693,34.6064796 45.6742089,34.2690487 45.6461623,33.8463905 C45.6251274,33.5472249 45.2833102,33.4463436 45.0992548,33.682893 C44.8871528,33.9507505 44.6610275,34.1838213 44.4051028,34.4134134 C44.5716292,34.4882048 44.7381555,34.5612569 44.9046819,34.6360482 C44.8871528,34.3507974 44.8994231,34.150774 44.978304,33.8637838 L44.401597,33.7698597 C44.3682917,34.1681673 44.3349865,34.5664749 44.2981754,34.9665218 C44.2823992,35.2274219 44.6189577,35.3543933 44.8012602,35.1891566 C45.2710398,34.7578016 45.7408194,34.3247074 46.210599,33.8933525 L45.7250432,33.5924476 C45.5813047,34.0029305 45.5287174,34.3786268 45.5672814,34.8134603 C45.5900693,35.0343558 45.7899009,35.1908959 46.0072616,35.0813178 C46.2263752,34.9717398 46.3595963,34.8447684 46.4928173,34.6412662 C46.6102622,34.4603755 46.4770412,34.1907787 46.2509159,34.1907787 C45.5164471,34.202954 44.8047661,34.140338 44.0773089,33.9924945 C43.7933376,33.9350965 43.5759769,34.2412193 43.7793144,34.4760295 C43.9195471,34.6377876 44.0580269,34.7995457 44.2000125,34.9630431 C44.3840679,35.1752419 44.6785566,35.0013084 44.7118619,34.7682376 C44.7521788,34.4899442 44.7924957,34.2099113 44.8345655,33.9298785 C44.883647,33.6011443 44.3402452,33.5176563 44.2543527,33.8342151 C44.1596956,34.1855606 44.0983438,34.5299488 44.0597798,34.8899911 C44.0282274,35.1943746 44.4541843,35.2813413 44.6066874,35.0534885 C44.7171206,34.8899911 44.8293068,34.7264936 44.9397401,34.5612569 C44.7609433,34.5334275 44.5803937,34.5021195 44.401597,34.4742901 C44.5190419,34.8882517 44.1877421,35.6431228 44.9397401,35.6239901 L44.6662863,35.2448153 L44.6049345,35.5926821 C44.5646175,35.8240136 44.7153677,35.9962077 44.960775,35.9648997 C45.2061822,35.930113 45.2622753,35.8727149 45.4095196,35.6779095 C45.5655285,35.4744074 45.3236271,35.1682845 45.0869844,35.2361186 C44.6803095,35.3543933 44.3490098,35.1578485 43.9475936,35.2917773 C43.6653753,35.3857013 43.4322384,35.5509381 43.2043602,35.7370469 C42.9834937,35.9161983 43.171055,36.2136245 43.400686,36.2431932 C43.612788,36.2727618 43.8266429,36.3023305 44.0404978,36.3336385 C44.0212158,36.1388331 43.998428,35.945767 43.9773931,35.7544402 L42.611877,35.945767 L42.9624588,36.3162452 C43.1920899,35.6205115 43.8950063,35.7909662 44.2490939,35.2917773 C44.4419139,35.0221805 44.4086087,34.7160576 44.1807305,34.4882048 C44.0089454,34.3247074 43.6531049,34.4151528 43.6653753,34.6830103 C43.6776456,34.9595644 43.7425033,35.1265405 43.9125354,35.342218 C44.0247216,35.4865827 44.2946696,35.4552747 44.3805621,35.2969953 C44.4822308,35.1004505 44.5716292,34.4134134 44.8100248,34.3734088 L44.4524314,34.1577313 L44.4822308,34.4099348 C44.5155361,34.7351903 45.0869844,34.6795316 45.0624437,34.3490581 C45.0308913,33.8776985 45.074714,33.4498222 45.2061822,32.9975953 C45.0414088,33.0358607 44.8748824,33.0723867 44.7066032,33.1123914 L44.8012602,33.4550402 C44.9660337,33.4167749 45.13256,33.3785095 45.2990864,33.3419835 C45.2254642,33.2619741 44.0334861,32.449705 44.0124512,32.6584251 L43.6285642,32.9315006 C43.9125354,32.9975953 44.1053554,33.0984767 44.3157045,33.3106755 L44.7399084,32.9071499 C44.555853,32.7227805 44.4717134,32.7071265 44.2122829,32.7384345 C44.0492623,32.7593065 43.9633698,32.9558513 43.9914163,33.0932587 C44.0702972,33.4533009 44.0773089,33.7837744 44.0247216,34.1438166 L44.4068557,33.8707411 C43.9037709,33.7315944 43.400686,33.630713 42.8835779,33.557661 C42.5049496,33.5037416 42.4891734,34.0916366 42.8642959,34.145556 L42.8642959,34.145556 Z M40.8098867,36.7823868 C42.1210625,36.8450028 43.4410029,36.8728322 44.7188735,37.2154811 C44.6785566,37.048505 44.6399926,36.8850075 44.6014286,36.7180314 C43.3410871,38.0294895 42.2104609,39.4540043 40.7941105,40.6054437 C40.5644794,40.7932918 40.7888518,41.1829027 41.0675643,41.1046326 C43.593506,40.4071595 45.8792992,39.1878862 47.8618392,37.4815992 C47.6970658,37.4068078 47.5287865,37.3320165 47.3622602,37.2589644 C47.4218591,38.6469532 47.8933915,39.9740653 47.9547434,41.3603148 C47.9670137,41.6820916 48.4245229,41.782973 48.5314504,41.4542388 C48.8697618,40.4332496 48.6576598,39.3983456 48.7032355,38.344309 C48.7155058,38.1303709 48.4595811,37.9581768 48.2650082,38.0781909 C48.0862115,38.1895083 47.9074148,38.2990863 47.730371,38.4104037 L48.1598337,38.5999912 C48.0704353,38.260821 48.0651766,37.9268688 48.1387988,37.5911773 L47.8320397,37.8746888 C49.2466372,37.7494567 50.3527227,38.6626072 51.4412792,39.4279143 C52.4860129,40.1584347 53.5149704,40.8837372 54.3405905,41.8647217 C54.5246459,42.0873565 54.9330737,41.8716791 54.8436753,41.5951249 C54.4965994,40.549785 54.3528608,39.535753 54.4019423,38.4330151 L54.0198082,38.7060906 C55.1013529,38.895678 56.0707116,39.2278909 57.0365644,39.7549092 C57.3363118,39.9149279 57.6290476,39.5635824 57.409934,39.3044216 C56.8735438,38.6643465 56.4160346,37.9999208 56.0111127,37.2763578 L55.7429176,37.709452 C56.677218,37.7442387 57.5887307,37.9268688 58.5125137,38.0486222 C58.8595896,38.0921056 58.8999065,37.5842199 58.6054178,37.4729025 C57.4204514,37.0154576 56.3757177,36.2518898 55.6342373,35.2222039 C55.4151236,34.9195597 54.8927568,35.1961139 55.1136233,35.5039761 C55.9497609,36.6675907 57.0909045,37.5181252 58.4318799,38.0329682 C58.4651851,37.8416414 58.4967375,37.652054 58.5282898,37.4589879 C57.6045069,37.3407131 56.6947471,37.1563437 55.7604467,37.121557 C55.5378273,37.1128603 55.3853242,37.3615851 55.4922516,37.5581299 C55.9217143,38.3269157 56.4125288,39.0313461 56.9804713,39.7062078 L57.352088,39.2557202 C56.351177,38.7113086 55.3169607,38.3425697 54.1933461,38.1425462 C54.004032,38.1112382 53.8182236,38.208641 53.8094591,38.4156217 C53.7568718,39.5601037 53.907622,40.643709 54.2669683,41.7342716 L54.7700532,41.4629355 C53.830494,40.3428042 52.6244927,39.535753 51.4325146,38.7026119 C50.3404524,37.9373048 49.250143,37.163301 47.8513217,37.2902724 C47.6777838,37.3041871 47.5708563,37.3998505 47.5463156,37.5720446 C47.4849638,37.9947028 47.5042458,38.3269157 47.5831267,38.7391379 C47.6164319,38.9182894 47.8548276,39.0243888 48.0125894,38.926986 C48.1913861,38.8156686 48.3719357,38.7060906 48.5524853,38.5947732 L48.1142581,38.3269157 C48.0704353,39.3183363 48.2842902,40.3201928 47.9652608,41.2820447 C48.1598337,41.3133527 48.3544066,41.3464001 48.5472266,41.3777081 C48.4858748,39.9897193 48.0143423,38.6626072 47.9547434,37.2763578 C47.942473,37.0206756 47.6567488,36.8797895 47.4551643,37.0519836 C45.5497523,38.6939152 43.3586162,39.8627479 40.9273316,40.534131 L41.2025383,41.0333199 C42.6188887,39.8818806 43.747762,38.4573658 45.0045977,37.1459077 C45.1553478,36.9945856 45.1202897,36.7128134 44.8906586,36.6519367 C43.5637066,36.2971125 42.1946847,36.2588472 40.8256629,36.1944918 C40.4452816,36.1770985 40.4295055,36.7649935 40.8098867,36.7823868 L40.8098867,36.7823868 Z M58.1689435,37.5476939 C57.3240414,37.4972532 56.4808923,37.5355186 55.639496,37.646836 C55.2643735,37.699016 55.4063591,38.2695177 55.7832345,38.219077 C56.5667848,38.1112382 57.3608525,38.0886269 58.1531673,38.1355889 C58.5353015,38.1564609 58.5528306,37.5703053 58.1689435,37.5476939 L58.1689435,37.5476939 Z M58.8508251,34.6099582 C57.7237047,34.6360482 56.5913255,34.9630431 55.620214,35.5283268 C55.2889142,35.7196535 55.5711325,36.2362358 55.9024323,36.0431697 C56.7858984,35.5318054 57.8060914,35.2222039 58.8350489,35.1961139 C59.2136772,35.1891566 59.2347121,34.6012616 58.8508251,34.6099582 L58.8508251,34.6099582 Z M58.4634322,35.7544402 C57.5361434,35.6900848 56.6106075,35.8170562 55.6885774,35.8848903 C55.3134549,35.9127196 55.29242,36.5006146 55.6728012,36.471046 C56.5913255,36.4032119 57.5186143,36.2779798 58.4423973,36.3423352 C58.8262844,36.3684252 58.8438134,35.7805302 58.4634322,35.7544402 L58.4634322,35.7544402 Z M59.2101714,32.2496815 C57.9515828,33.126306 56.9384015,34.3438401 55.8726329,35.430924 C55.6079436,35.7005208 56.0111127,36.1283971 56.2775548,35.8588003 C57.3047594,34.8151997 58.2881413,33.6081017 59.4923897,32.7662638 C59.7991488,32.5523257 59.5204363,32.0322647 59.2101714,32.2496815 L59.2101714,32.2496815 Z M60.3548209,33.4880876 C59.0506567,33.8376938 57.7324692,34.0238026 56.3792235,34.0429352 C55.9988423,34.0481532 55.9795603,34.6360482 56.3634474,34.6308302 C57.7640216,34.6116976 59.1365492,34.4238495 60.4933007,34.0585892 C60.8614116,33.9594472 60.7264376,33.3889455 60.3548209,33.4880876 L60.3548209,33.4880876 Z M58.0287108,31.8026726 C57.27496,31.924426 56.6333953,32.3175156 55.9322318,32.6027664 C54.9611202,33.001074 53.9479389,33.2689315 52.9154755,33.4515616 C52.5386001,33.5176563 52.6788328,34.0898973 53.0557083,34.0238026 C53.9970203,33.8568265 54.9172975,33.6185377 55.813034,33.2793675 C56.5948313,32.9819413 57.3363118,32.5088424 58.1689435,32.3731743 C58.544066,32.3105582 58.4038333,31.7400566 58.0287108,31.8026726 L58.0287108,31.8026726 Z M56.2389908,31.1330289 C54.9944255,32.4062216 53.3151388,32.6706004 51.6533811,33.0723867 C51.2800115,33.1610927 51.4202443,33.7333337 51.7918609,33.6428883 C53.560546,33.2150121 55.3274782,32.9088893 56.6456657,31.5591658 C56.9103549,31.2878297 56.505433,30.8599534 56.2389908,31.1330289 L56.2389908,31.1330289 Z M55.1451757,29.3049885 C54.5334105,30.4094658 54.119724,31.6096065 53.8708109,32.8445339 C53.7989416,33.2132728 54.3651312,33.3872062 54.4387534,33.0184673 C54.6753961,31.8339806 55.0575302,30.6773233 55.6482605,29.619808 C55.8340689,29.2875952 55.3292311,28.974515 55.1451757,29.3049885 L55.1451757,29.3049885 Z M53.0504495,30.2720584 L50.829514,32.6218991 C50.5700834,32.8967139 50.9750054,33.3280688 51.2361888,33.0497753 L53.4536186,30.701674 C53.7165549,30.4251198 53.3098801,29.9955042 53.0504495,30.2720584 L53.0504495,30.2720584 Z M44.3805621,35.5683314 C44.7644492,35.5805068 44.7802253,34.9926118 44.3963383,34.9821758 C44.0212158,34.9717398 44.0001809,35.5578954 44.3805621,35.5683314 L44.3805621,35.5683314 Z M43.7968434,33.9837979 C44.1807305,33.9942339 44.1965067,33.4080782 43.8161254,33.3976422 C43.4322384,33.3854669 43.4164622,33.9716225 43.7968434,33.9837979 L43.7968434,33.9837979 Z M47.481458,38.9148107 C47.8618392,38.9252467 47.8811212,38.3373517 47.4972341,38.3269157 C47.1168529,38.3147403 47.0993238,38.9026354 47.481458,38.9148107 L47.481458,38.9148107 Z M56.5755493,67.3720597 C54.7490183,48.5715949 51.0924503,36.9232729 50.9381943,36.4379986 L47.7759467,37.4276798 C47.8127577,37.5459546 51.4815961,49.2308026 53.2783277,67.6886185 C54.9330737,84.7445309 55.2766438,111.177195 47.4779521,140.234514 L50.6822696,141.083309 C58.6089237,111.551152 58.2636006,84.6993082 56.5755493,67.3720597 L56.5755493,67.3720597 Z M49.6620766,35.6431228 C49.7812744,35.5196301 61.3960488,22.9181529 62.6458729,8.88520349 L61.9394506,8.82084812 C60.9928798,19.4429629 53.9829971,29.2562872 50.7576447,33.2637135 C60.391632,11.452461 57.6413179,5.1717247 57.5133556,4.90560655 L56.8717909,5.20825072 C56.9015904,5.27086676 59.7991488,11.8907732 49.0836167,35.2604693 L48.1668453,37.2520071 L49.6620766,35.6431228 Z M63.9377667,17.4444677 C65.9466003,12.9274165 65.9308241,10.2349269 65.9308241,10.1236095 L65.2191431,10.1323062 C65.220896,10.2366663 65.1507797,20.8761744 49.1660034,35.1421945 L49.6427946,35.6674735 C58.1198621,28.0978905 62.0954595,21.5806048 63.9377667,17.4444677 L63.9377667,17.4444677 Z M65.3471055,20.9353117 C67.9291403,16.155621 68.6723737,12.4317062 68.7056789,12.2751661 L68.0062683,12.1429767 C67.9782217,12.2908201 64.9158899,27.163868 50.4175804,35.1317585 L50.7611505,35.7474829 C58.4932317,31.4982891 62.9613965,25.3497423 65.3471055,20.9353117 L65.3471055,20.9353117 Z M72.8460497,15.9799482 L72.1816973,15.7381808 C72.1378746,15.8599342 67.511948,27.9100424 51.6235817,35.1543699 L51.9215762,35.7961842 C68.0921608,28.4214067 72.8039799,16.1069196 72.8460497,15.9799482 L72.8460497,15.9799482 Z M71.5226035,25.1671122 C75.1195726,21.8154149 76.1467772,19.2516361 76.1853412,19.1437974 L75.5244945,18.8898546 C75.4841776,18.9924753 71.3701005,29.031913 51.0766741,35.1195832 L51.2800115,35.7961842 C62.0393664,32.5697191 68.2253819,28.2335586 71.5226035,25.1671122 L71.5226035,25.1671122 Z M76.9057868,24.5722598 L76.3834199,24.0939429 C76.304539,24.1809096 68.1710417,32.7471312 51.6849335,35.8344496 L51.8181546,36.5267047 C68.5461642,33.3924242 76.8234,24.6592265 76.9057868,24.5722598 L76.9057868,24.5722598 Z M77.7945116,29.3380359 L77.3422611,28.7936242 C77.2686389,28.8527616 69.6259561,34.9439104 55.4764755,34.5264702 L55.4554405,35.2309006 C69.8696104,35.6587768 77.7156307,29.4006519 77.7945116,29.3380359 L77.7945116,29.3380359 Z M78.3396662,33.9611865 L77.9382501,33.3767702 C77.8698867,33.4237322 70.8670156,37.9964422 55.5080278,35.2361186 L55.3835713,35.9318523 C58.447656,36.481482 61.180441,36.7493395 63.5941966,36.8206522 C73.5156609,37.1145997 78.1065294,34.1194659 78.3396662,33.9611865 L78.3396662,33.9611865 Z M77.4001071,39.0313461 L77.1582056,38.3686597 C77.1021126,38.3912711 71.3157603,40.3567188 55.00319,36.7528181 L54.8471812,37.4433338 C61.7904533,38.9756874 66.8388309,39.514881 70.377954,39.6209804 C75.2545466,39.7653452 77.2598744,39.0817868 77.4001071,39.0313461 L77.4001071,39.0313461 Z M75.1441133,43.457952 L75.1195726,42.7552609 C75.0126451,42.7570002 64.528497,43.0179004 53.5850867,37.5894379 L53.2660573,38.2208163 C62.2917853,42.6961235 71.0160129,43.3605492 74.0327691,43.4492553 C74.7304268,43.4701273 75.1213255,43.4614306 75.1441133,43.457952 L75.1441133,43.457952 Z M73.591036,48.7107416 C73.4928731,48.6950876 63.8886853,46.9000946 53.0364263,36.7771688 L52.5491176,37.2902724 C63.56615,47.5697383 73.3666637,49.3873427 73.4700853,49.404736 L73.591036,48.7107416 Z M69.7591772,52.3772584 C69.6364735,52.328557 57.4046752,47.3505822 52.0442798,36.8432635 L51.4114797,37.1615617 C56.8910729,47.9036905 69.3665256,52.9825467 69.4944879,53.0329874 L69.7591772,52.3772584 Z M65.8291554,54.9219045 C65.7134634,54.8071085 53.8673051,43.1570471 52.694609,36.1405724 L51.9916926,36.2553685 C53.2011997,43.494478 64.837009,54.9392979 65.3313293,55.4245721 L65.8291554,54.9219045 Z M61.4083192,57.8422469 C61.353979,57.7900668 55.7481763,52.4537891 50.1949609,36.013601 L49.520091,36.2362358 C55.1416699,52.879926 60.6913794,58.1431517 60.9245163,58.3588292 L61.4083192,57.8422469 Z M57.5273789,58.6875633 L48.8136687,34.5525602 L48.1440575,34.790849 L56.8577677,58.9258522 L57.5273789,58.6875633 Z M50.7611505,41.3968408 L50.0547282,41.4698928 C50.5946242,46.6757205 48.7645873,61.0826267 48.7470582,61.2252521 L49.4517276,61.3156975 C49.5288556,60.7208452 51.309811,46.6844171 50.7611505,41.3968408 L50.7611505,41.3968408 Z M48.7172587,38.6139059 L48.0020719,38.6017305 C47.7531588,50.7979428 44.2981754,60.9208686 44.2613643,61.0234894 L44.9362342,61.2513421 C44.9730453,61.1504608 48.461334,50.9266536 48.7172587,38.6139059 L48.7172587,38.6139059 Z M47.7671821,38.6052092 L47.057254,38.5547685 C46.4560063,46.8948766 40.9816718,58.066621 40.9273316,58.1779384 L41.5653904,58.4892792 C41.6232364,58.3744832 47.1589227,47.0827247 47.7671821,38.6052092 L47.7671821,38.6052092 Z M47.7741937,37.8451201 L48.4455579,35.9683783 L47.1641814,37.5042105 C47.057254,37.631182 36.4223557,50.3248439 28.8620596,54.3670569 L29.1986181,54.9862599 C35.2864707,51.7337047 43.0693863,43.2753219 46.2614334,39.6401131 C42.8730605,46.9366206 35.0656042,56.297718 34.9797117,56.4003387 L35.5266193,56.8508263 C35.6212763,56.7377696 45.0677024,45.4112244 47.7741937,37.8451201 L47.7741937,37.8451201 Z M46.5138522,37.9338261 L48.7593285,35.5578954 L46.0510843,37.4015898 C45.940651,37.4781205 34.7465748,45.0320495 24.3658483,46.3261143 L24.4552466,47.0253267 C31.759618,46.1156548 39.437359,42.1691052 43.5093664,39.8018712 C35.8859656,46.3121996 25.4964745,49.7317309 25.3825354,49.7682569 L25.603402,50.4379006 C25.7348701,50.3978959 38.783524,46.1034795 46.5138522,37.9338261 L46.5138522,37.9338261 Z M45.4919064,37.126775 L47.9652608,35.893587 L45.2587695,36.4675673 C45.1080193,36.4988753 30.1837529,39.6401131 21.2649524,38.3373517 L21.1597779,39.0348248 C27.8962068,40.0175487 37.9543981,38.5147638 42.7170516,37.6694473 C30.124154,43.4022933 23.1353062,42.1691052 23.0616841,42.1551905 L22.9267101,42.8491849 C23.0090968,42.8630996 23.5524986,42.9622417 24.5411392,42.9918104 C27.5473779,43.0822557 34.6729526,42.5361048 45.4919064,37.126775 L45.4919064,37.126775 Z M45.4428249,36.2623258 L45.2745457,35.5770281 C36.5117541,37.6659686 19.9555295,33.5193956 19.7872502,33.4759122 L19.6137123,34.1594706 C20.1290675,34.29166 29.3861794,36.6101927 37.7545665,36.8589175 C40.5311742,36.9406662 43.2166306,36.7928228 45.4428249,36.2623258 L45.4428249,36.2623258 Z M42.0684753,33.7663811 L41.9247367,33.074126 C35.5564187,34.3716694 19.4962674,27.0873373 19.3349997,27.0142852 L19.0387581,27.6543602 C19.6347472,27.9274357 32.3819007,33.708983 39.7634001,33.9281392 C40.611808,33.9542292 41.3900995,33.9055278 42.0684753,33.7663811 L42.0684753,33.7663811 Z M42.8520256,33.3141541 C38.8483816,32.9523726 20.4638731,20.9544444 20.2780647,20.832691 L19.887166,21.4223253 C20.6514343,21.919775 38.6082331,33.641149 42.7871679,34.0168452 L42.8520256,33.3141541 Z M44.8626121,33.3819882 C41.2884308,32.4670983 24.2045807,16.207801 24.0310427,16.0425643 L23.5402282,16.5521892 C24.2466505,17.2270509 40.9325903,33.1036947 44.6820624,34.0655466 L44.8626121,33.3819882 Z M45.0466675,32.4218756 C39.4654056,27.2804034 28.7814258,12.9569852 28.6744984,12.8126204 L28.1012972,13.2318 C28.2099775,13.3779041 38.9342742,27.7535023 44.5593588,32.9401973 L45.0466675,32.4218756 Z M46.2018345,33.578533 C35.1970724,15.1468071 35.570442,10.4923484 35.5739478,10.4471257 L34.8692784,10.3532017 C34.8447377,10.5375711 34.3521703,15.1154991 45.5935751,33.9368358 L46.2018345,33.578533 Z M47.9196852,32.6427711 C39.8124815,10.7323766 41.3603001,6.0431312 41.3778292,5.99790851 L41.0465294,5.8709371 L41.3760763,6.00486584 L40.7152296,5.73874769 C40.6433603,5.92311713 38.9710852,10.4993058 47.2518269,32.8845386 L47.9196852,32.6427711 Z M48.8907967,32.7453918 C47.0116784,19.1072713 47.1098413,5.47436887 47.1098413,5.3387008 L46.3981603,5.33174346 C46.3981603,5.46741154 46.2982444,19.1490154 48.1843744,32.8410552 L48.8907967,32.7453918 Z M52.040774,4.7716778 L51.3729157,5.01518461 C51.4027152,5.09171532 54.1512763,12.9239378 49.136204,32.7349558 L49.8268501,32.9071499 C54.908533,12.8352318 52.1599718,5.09171532 52.040774,4.7716778 L52.040774,4.7716778 Z M44.9239639,35.4657107 L41.9422658,39.8557906 L46.2439043,38.3808351 L50.2370307,38.6643465 L53.8392585,40.4436856 L54.1057007,38.4243184 L56.735064,39.2591989 L56.2495083,37.7755467 L57.5343905,37.4972532 L56.0777232,35.6431228 L58.544066,33.001074 L56.1425808,33.4898269 L54.2231456,32.6184204 L54.7805706,30.5312192 L53.2870922,31.6930946 L51.2677412,32.5297144 L49.4990561,32.2914256 L47.2518269,32.1488001 L46.8363875,33.2811068 L45.0624437,32.3453449 L44.9239639,35.4657107 Z" id="Fill-546" fill="#FFFFFF" mask="url(#mask-2)"></path>
                    </g>
                </g>
            </g>
        </g>
    </g>
</svg>